<?xml version="1.0" encoding="UTF-8"?>
<svg id="_レイヤー_1" data-name="レイヤー 1" xmlns="http://www.w3.org/2000/svg" viewBox="0 0 32 32">
  <defs>
    <style>
      .cls-1 {
        fill: #fff;
      }
    </style>
  </defs>
  <circle cx="16" cy="16" r="16"/>
  <path class="cls-1" d="M12.65,17.64l-1.03,4.84h3.39c.74,0,1.24.11,1.5.34s.39.55.39.97c0,.67-.32,1.22-.95,1.66-.33.23-.88.34-1.63.34h-7.22c-.73,0-1.23-.12-1.49-.35s-.39-.55-.39-.96c0-.66.31-1.2.93-1.64.34-.24.9-.35,1.66-.35h.52l2.74-12.93h-.52c-.73,0-1.23-.12-1.49-.35s-.39-.56-.39-.98c0-.66.31-1.2.93-1.64.34-.24.9-.35,1.66-.35l15.56.02-1.06,5.05c-.17.8-.45,1.36-.83,1.69s-.82.5-1.31.5c-.38,0-.69-.12-.93-.35s-.37-.52-.37-.85c0-.21.05-.54.15-.98l.37-1.74h-8.43l-1.03,4.79h2.9c.18-.85.38-1.4.6-1.66.44-.53.97-.79,1.6-.79.38,0,.69.12.94.36s.38.52.38.85c0,.23-.05.56-.15,1l-.81,3.8c-.17.8-.45,1.36-.83,1.7s-.82.51-1.31.51c-.38,0-.69-.12-.93-.36s-.37-.53-.37-.86c0-.21.06-.63.19-1.24h-2.9Z"/>
</svg>